<svg width="19" height="19" viewBox="0 0 19 19" fill="none" xmlns="http://www.w3.org/2000/svg">
<path d="M15.0417 8.70898H3.95833C3.08388 8.70898 2.375 9.41787 2.375 10.2923V15.834C2.375 16.7084 3.08388 17.4173 3.95833 17.4173H15.0417C15.9161 17.4173 16.625 16.7084 16.625 15.834V10.2923C16.625 9.41787 15.9161 8.70898 15.0417 8.70898Z" stroke="black" stroke-linecap="round" stroke-linejoin="round"/>
<path d="M5.54163 8.70898V5.54232C5.54163 4.4925 5.95866 3.48568 6.70099 2.74335C7.44333 2.00102 8.45014 1.58398 9.49996 1.58398C10.5498 1.58398 11.5566 2.00102 12.2989 2.74335C13.0413 3.48568 13.4583 4.4925 13.4583 5.54232V8.70898" stroke="black" stroke-linecap="round" stroke-linejoin="round"/>
</svg>
